# xmcd CD database file
#
# Track frame offsets:
#	150
#	21249
#	39131
#	58490
#
# Disc length: 1047 seconds
#
# Revision: 0
# Processed by: cddbd v1.5.2PL0 Copyright (c) Steve Scherf et al.
# Submitted via: CDex 1.70beta2
#
DISCID=2e041504
DTITLE=INSANE - INTERMENT OF LIFE (2013 MINI ALBUM)
DYEAR=2013
DGENRE=Thrash Metal
TTITLE0=VIOLENT RITUAL
TTITLE1=MINDLESS SLAUGHTER
TTITLE2=CORRUPT MINDS
TTITLE3=FINAL DISEASE
EXTD=YEAR: 2013
EXTT0=
EXTT1=
EXTT2=
EXTT3=
PLAYORDER=
